<svg width="172" height="169" viewBox="0 0 172 169" fill="none" xmlns="http://www.w3.org/2000/svg">
<path d="M56.1263 168.718C58.1311 168.718 60.1325 168.555 62.1107 168.229C62.7455 168.127 63.3982 168.001 64.0451 167.858C67.6708 167.057 71.154 165.71 74.3757 163.864C83.9922 158.372 91.5669 148.345 95.7039 135.631C97.096 131.327 98.0804 126.901 98.644 122.412C100.015 122.546 101.398 122.621 102.795 122.621C111.267 122.621 120.166 120.171 128.909 115.389C140.21 109.207 150.217 99.6526 157.847 87.7597C175.094 60.8898 175.565 28.9879 158.972 11.9065C156.124 8.96938 152.802 6.53334 149.144 4.70083C138.14 -0.819958 124.594 -0.645778 111.002 5.19031C97.6095 10.94 85.3498 21.7196 76.4805 35.541C73.8585 39.6236 71.5778 43.9156 69.6619 48.3734C61.8903 42.6585 53.1681 39.3686 44.2288 39.256C41.4296 39.2211 38.6356 39.5073 35.9016 40.1091C34.6457 40.3852 33.4058 40.7293 32.1873 41.1399C20.5123 45.0405 11.0767 54.7608 5.61921 68.5111C0.240972 82.0544 -0.773535 98.3477 2.7616 114.385C9.75651 146.133 32.4788 168.718 56.1263 168.718ZM156.783 18.0032C162.52 25.088 165.556 34.9679 165.381 46.173C165.184 58.9401 160.808 72.6199 153.061 84.6884C145.943 95.7823 136.647 104.673 126.18 110.399C117.263 115.277 107.913 117.496 99.5195 116.782C116.054 103.796 127.188 85.1427 130.769 64.426C133.63 47.9675 141.602 32.8283 153.554 21.1569L156.783 18.0032ZM143.979 15.013L148.354 10.7413C148.71 10.9507 149.068 11.1657 149.421 11.3908C150.611 12.1554 151.748 13.0013 152.822 13.9224L149.581 17.0861C136.773 29.5926 128.23 45.8158 125.164 63.4527C122.068 81.3655 112.911 97.6703 99.2259 109.636C99.1491 107.336 98.9764 105.02 98.7079 102.689C110.466 90.4622 118.297 74.9975 121.195 58.2839C124.024 41.8139 132 26.6646 143.979 15.013ZM81.2661 38.6126C96.9985 14.0952 123.231 1.43407 142.821 8.19722L140.006 10.945C127.17 23.4297 118.622 39.6625 115.592 57.3106C113.145 71.427 106.92 84.617 97.5776 95.4787C97.4521 94.8467 97.3223 94.2143 97.183 93.5819C93.4132 76.4725 85.0053 61.8741 74.2506 52.131C76.1656 47.4174 78.5142 42.8918 81.2661 38.6126ZM46.9634 49.6246L47.0082 45.1102C56.0755 46.0465 65.2174 50.8688 73.0338 58.8974C81.9401 68.0475 88.5444 80.8003 91.6305 94.8062C94.593 108.256 94.1188 122.13 90.2979 133.872C87.3727 142.859 82.5984 150.3 76.5832 155.39C79.0506 134.512 73.6908 113.459 61.5398 96.3023C52.0285 82.8973 46.9316 66.8612 46.9581 50.4248C46.9581 50.1596 46.9581 49.8976 46.9616 49.6246H46.9634ZM35.855 52.0727L35.913 45.9587C36.3143 45.852 36.7174 45.7529 37.1233 45.6636C38.5066 45.3598 39.9092 45.1513 41.3211 45.0398L41.2763 49.5621C41.2724 49.8514 41.2724 50.1365 41.2724 50.4259C41.2437 68.0388 46.7053 85.2227 56.8973 99.5872C68.3884 115.811 73.3675 135.76 70.8484 155.481L70.3284 159.59C68.6196 160.472 66.8325 161.193 64.9903 161.743L65.3813 158.644C65.8304 155.089 66.056 151.509 66.0567 147.925C66.0873 130.308 60.6255 113.119 50.4314 98.7515C40.7575 85.1253 35.6535 68.7825 35.8532 52.0727H35.855ZM30.2031 48.0847L30.1657 52.0173C29.9522 69.9225 35.4215 87.4344 45.7875 102.035C55.3007 115.443 60.398 131.483 60.3703 147.923C60.3693 151.268 60.1585 154.609 59.739 157.928L59.1119 162.886C48.9892 163.845 38.4613 159.795 29.2401 151.333C19.1252 142.05 11.6945 128.494 8.31651 113.161C2.04498 84.714 11.5843 57.1947 30.2031 48.0847Z" fill="#FFFAE6"/>
<path d="M98.1387 36.1351C98.8573 36.136 99.5494 35.8638 100.075 35.3737C101.268 34.264 102.522 33.1911 103.802 32.1852C104.096 31.9544 104.341 31.6681 104.524 31.3425C104.707 31.0169 104.824 30.6585 104.869 30.2877C104.913 29.9169 104.884 29.541 104.783 29.1814C104.683 28.8218 104.512 28.4856 104.281 28.192C104.05 27.8984 103.764 27.6531 103.438 27.4701C103.113 27.2872 102.754 27.1701 102.384 27.1257C102.013 27.0812 101.637 27.1103 101.277 27.2111C100.918 27.3119 100.582 27.4826 100.288 27.7134C98.8845 28.8153 97.5096 29.9923 96.2 31.2091C95.7817 31.5981 95.4903 32.1041 95.3637 32.6612C95.2371 33.2183 95.2812 33.8005 95.4903 34.3322C95.6994 34.8638 96.0637 35.3201 96.5359 35.6417C97.008 35.9633 97.5661 36.1353 98.1373 36.1351H98.1387Z" fill="#FFFAE6"/>
<path d="M83.6077 53.5976C83.942 53.7641 84.3059 53.8631 84.6784 53.8889C85.051 53.9147 85.425 53.8668 85.779 53.7479C86.1331 53.6291 86.4602 53.4416 86.7417 53.1962C87.0233 52.9508 87.2537 52.6524 87.4198 52.3179C89.2319 48.6755 91.4148 45.2298 93.9338 42.0352C94.1705 41.7426 94.3468 41.4059 94.4524 41.0447C94.558 40.6835 94.5909 40.3048 94.5491 39.9308C94.5073 39.5567 94.3917 39.1947 94.2089 38.8657C94.0262 38.5367 93.7799 38.2472 93.4844 38.0141C93.189 37.7809 92.8501 37.6088 92.4876 37.5076C92.1251 37.4064 91.7461 37.3781 91.3726 37.4245C90.9991 37.4709 90.6385 37.5909 90.3118 37.7777C89.985 37.9645 89.6986 38.2142 89.4691 38.5125C86.7069 42.0146 84.3137 45.7924 82.3273 49.7859C81.9918 50.4611 81.9382 51.242 82.1783 51.9568C82.4184 52.6716 82.9326 53.2618 83.6077 53.5976Z" fill="#FFFAE6"/>
<path d="M28.5919 141.893C29.0822 142.466 29.7801 142.821 30.5321 142.88C31.2841 142.939 32.0287 142.696 32.602 142.206C33.1753 141.716 33.5303 141.018 33.5891 140.266C33.6478 139.514 33.4054 138.769 32.9152 138.196C31.8562 136.957 30.836 135.659 29.8848 134.338C29.444 133.726 28.7781 133.315 28.0336 133.194C27.2891 133.073 26.5271 133.252 25.9151 133.693C25.3031 134.134 24.8913 134.8 24.7703 135.544C24.6492 136.289 24.8289 137.051 25.2697 137.663C26.3145 139.112 27.4321 140.535 28.5919 141.893Z" fill="#FFFAE6"/>
<path d="M35.6074 148.926C38.991 151.832 42.6655 154.382 46.5726 156.533C46.8998 156.715 47.2597 156.83 47.6315 156.872C48.0033 156.914 48.3798 156.882 48.7393 156.779C49.0989 156.675 49.4344 156.501 49.7267 156.268C50.0191 156.034 50.2624 155.745 50.4429 155.418C50.6233 155.09 50.7372 154.729 50.7782 154.358C50.8192 153.986 50.7863 153.609 50.6815 153.25C50.5768 152.891 50.4021 152.556 50.1676 152.264C49.9331 151.973 49.6434 151.73 49.315 151.551C45.7514 149.588 42.3998 147.263 39.3135 144.613C38.7406 144.129 37.9993 143.89 37.2514 143.95C36.5035 144.01 35.8094 144.362 35.3205 144.932C34.8316 145.501 34.5874 146.24 34.6411 146.988C34.6948 147.737 35.0422 148.434 35.6074 148.927V148.926Z" fill="#FFFAE6"/>
</svg>
