<svg width="20" height="20" viewBox="0 0 20 20" fill="none" xmlns="http://www.w3.org/2000/svg">
<g clip-path="url(#clip0_196_1498)">
<mask id="mask0_196_1498" style="mask-type:luminance" maskUnits="userSpaceOnUse" x="0" y="0" width="20" height="20">
<path d="M20 0H0V20H20V0Z" fill="white"/>
</mask>
<g mask="url(#mask0_196_1498)">
<path fill-rule="evenodd" clip-rule="evenodd" d="M11.2 0.25H8.8C5.23775 0.25 3.45663 0.25 2.20802 1.15717C1.80477 1.45015 1.45015 1.80477 1.15717 2.20802C0.25 3.45663 0.25 5.23775 0.25 8.8V11.2C0.25 14.7622 0.25 16.5434 1.15717 17.792C1.45015 18.1952 1.80477 18.5499 2.20802 18.8428C3.45663 19.75 5.23775 19.75 8.8 19.75H11.2C14.7622 19.75 16.5434 19.75 17.792 18.8428C18.1952 18.5499 18.5499 18.1952 18.8428 17.792C19.75 16.5434 19.75 14.7622 19.75 11.2V8.8C19.75 5.23775 19.75 3.45663 18.8428 2.20802C18.5499 1.80477 18.1952 1.45015 17.792 1.15717C16.5434 0.25 14.7622 0.25 11.2 0.25ZM14 10C14 12.2091 12.2091 14 10 14C7.79086 14 6 12.2091 6 10C6 7.79086 7.79086 6 10 6C12.2091 6 14 7.79086 14 10ZM15.5 5.5C16.0523 5.5 16.5 5.05228 16.5 4.5C16.5 3.94772 16.0523 3.5 15.5 3.5C14.9477 3.5 14.5 3.94772 14.5 4.5C14.5 5.05228 14.9477 5.5 15.5 5.5Z" fill="#F3B258"/>
</g>
</g>
<defs>
<clipPath id="clip0_196_1498">
<rect width="20" height="20" fill="white"/>
</clipPath>
</defs>
</svg>
