<svg width="20" height="20" viewBox="0 0 20 20" fill="none" xmlns="http://www.w3.org/2000/svg">
<g clip-path="url(#clip0_196_1504)">
<mask id="mask0_196_1504" style="mask-type:luminance" maskUnits="userSpaceOnUse" x="0" y="0" width="20" height="20">
<path d="M20 0H0V20H20V0Z" fill="white"/>
</mask>
<g mask="url(#mask0_196_1504)">
<path fill-rule="evenodd" clip-rule="evenodd" d="M1.15717 2.20802C0.25 3.45663 0.25 5.23775 0.25 8.8V11.2C0.25 14.7622 0.25 16.5434 1.15717 17.792C1.45015 18.1952 1.80477 18.5499 2.20802 18.8428C3.45663 19.75 5.23775 19.75 8.8 19.75H11.2C14.7622 19.75 16.5434 19.75 17.792 18.8428C18.1952 18.5499 18.5499 18.1952 18.8428 17.792C19.75 16.5434 19.75 14.7622 19.75 11.2V8.8C19.75 5.23775 19.75 3.45663 18.8428 2.20802C18.5499 1.80477 18.1952 1.45015 17.792 1.15717C16.5434 0.25 14.7622 0.25 11.2 0.25H8.8C5.23775 0.25 3.45663 0.25 2.20802 1.15717C1.80477 1.45015 1.45015 1.80477 1.15717 2.20802ZM6.75 8.5C6.75 6.70507 8.20507 5.25 10 5.25C11.7949 5.25 13.25 6.70507 13.25 8.5C13.25 10.2949 11.7949 11.75 10 11.75C9.60141 11.75 9.22054 11.6786 8.86876 11.5479L9.73214 7.6627C9.822 7.25835 9.56705 6.85772 9.1627 6.76786C8.75835 6.678 8.35772 6.93295 8.26786 7.3373L7.27478 11.8062L6.49008 15.3373C6.40023 15.7417 6.65517 16.1423 7.05952 16.2321C7.46387 16.322 7.86451 16.067 7.95436 15.6627L8.54127 13.0216C9.00132 13.1699 9.49171 13.25 10 13.25C12.6234 13.25 14.75 11.1234 14.75 8.5C14.75 5.87665 12.6234 3.75 10 3.75C7.37665 3.75 5.25 5.87665 5.25 8.5C5.25 8.91421 5.58579 9.25 6 9.25C6.41421 9.25 6.75 8.91421 6.75 8.5Z" fill="#F3B258"/>
</g>
</g>
<defs>
<clipPath id="clip0_196_1504">
<rect width="20" height="20" fill="white"/>
</clipPath>
</defs>
</svg>
