<svg width="183" height="33" viewBox="0 0 183 33" fill="none" xmlns="http://www.w3.org/2000/svg">
<path d="M1.14062 0.378906H9.34375C11.9349 0.378906 13.8945 0.580729 15.2227 0.984375C16.5638 1.38802 17.6445 2.20833 18.4648 3.44531C19.2852 4.66927 19.6953 6.64844 19.6953 9.38281C19.6953 11.2318 19.4023 12.5208 18.8164 13.25C18.2435 13.9792 17.1042 14.5391 15.3984 14.9297C17.2995 15.3594 18.5885 16.0755 19.2656 17.0781C19.9427 18.0677 20.2812 19.5911 20.2812 21.6484V24.5781C20.2812 26.7135 20.0339 28.2956 19.5391 29.3242C19.0573 30.3529 18.2826 31.056 17.2148 31.4336C16.1471 31.8112 13.9596 32 10.6523 32H1.14062V0.378906ZM9.36329 5.78906V12.8203C9.71485 12.8073 9.98829 12.8008 10.1836 12.8008C10.9909 12.8008 11.5052 12.6055 11.7266 12.2148C11.9479 11.8112 12.0586 10.6719 12.0586 8.79688C12.0586 7.80729 11.9674 7.11719 11.7852 6.72656C11.6029 6.32292 11.362 6.06901 11.0625 5.96484C10.776 5.86068 10.2096 5.80208 9.36329 5.78906ZM9.36329 17.7422V26.5898C10.5221 26.5508 11.2578 26.3685 11.5703 26.043C11.8958 25.7174 12.0586 24.9167 12.0586 23.6406V20.6914C12.0586 19.3372 11.9154 18.5169 11.6289 18.2305C11.3424 17.944 10.5872 17.7812 9.36329 17.7422Z" fill="#1E3832"/>
<path d="M30.9062 6.08203L30.5938 9.48047C31.7396 7.04557 33.3997 5.75651 35.5742 5.61328V14.7344C34.1289 14.7344 33.0677 14.9297 32.3906 15.3203C31.7135 15.7109 31.2969 16.2578 31.1406 16.9609C30.9844 17.651 30.9062 19.2526 30.9062 21.7656V32H23.0156V6.08203H30.9062Z" fill="#1E3832"/>
<path d="M55.2227 19.5H45.0078V25.1055C45.0078 26.2773 45.0924 27.0326 45.2617 27.3711C45.431 27.7096 45.7565 27.8789 46.2383 27.8789C46.8372 27.8789 47.2344 27.6576 47.4297 27.2148C47.638 26.7591 47.7422 25.8867 47.7422 24.5977V21.1797H55.2227V23.0938C55.2227 24.6953 55.1185 25.9258 54.9102 26.7852C54.7148 27.6445 54.2461 28.5625 53.5039 29.5391C52.7617 30.5156 51.8177 31.2513 50.6719 31.7461C49.5391 32.2279 48.1133 32.4688 46.3945 32.4688C44.7279 32.4688 43.2565 32.2279 41.9805 31.7461C40.7044 31.2643 39.7083 30.6068 38.9922 29.7734C38.2891 28.9271 37.8008 28.0026 37.5273 27C37.2539 25.9844 37.1172 24.513 37.1172 22.5859V15.0273C37.1172 12.7617 37.4232 10.9779 38.0352 9.67578C38.6471 8.36068 39.6497 7.35807 41.043 6.66797C42.4362 5.96484 44.0378 5.61328 45.8477 5.61328C48.0612 5.61328 49.8841 6.03646 51.3164 6.88281C52.7617 7.71615 53.7708 8.82943 54.3438 10.2227C54.9297 11.6029 55.2227 13.5495 55.2227 16.0625V19.5ZM47.3125 15.2812V13.3867C47.3125 12.0456 47.2409 11.1797 47.0977 10.7891C46.9544 10.3984 46.6615 10.2031 46.2188 10.2031C45.6719 10.2031 45.3333 10.3724 45.2031 10.7109C45.0729 11.0365 45.0078 11.9284 45.0078 13.3867V15.2812H47.3125Z" fill="#1E3832"/>
<path d="M83.3086 6.08203L80.1641 32H71.5898C71.1211 28.8359 70.5807 24.6693 69.9688 19.5C69.7604 21.7656 69.4674 24.0573 69.0898 26.375L68.2109 32H59.6367L56.2969 6.08203H63.0938C63.1458 6.75911 63.7188 11.7005 64.8125 20.9062C64.8906 19.9688 65.4766 15.0273 66.5703 6.08203H73.1133L74.7148 20.9062C74.9622 16.5833 75.5612 11.6419 76.5117 6.08203H83.3086Z" fill="#1E3832"/>
<path d="M92.5078 0.378906V7.48828C93.1849 6.86328 93.9141 6.39453 94.6953 6.08203C95.4896 5.76953 96.3359 5.61328 97.2344 5.61328C98.6146 5.61328 99.7865 5.96484 100.75 6.66797C101.727 7.37109 102.319 8.1849 102.527 9.10938C102.749 10.0208 102.859 11.694 102.859 14.1289V32H94.9688V13.7578C94.9688 12.2474 94.8906 11.2773 94.7344 10.8477C94.5911 10.418 94.2591 10.2031 93.7383 10.2031C93.2565 10.2031 92.931 10.4245 92.7617 10.8672C92.5924 11.3099 92.5078 12.1888 92.5078 13.5039V32H84.6172V0.378906H92.5078Z" fill="#F3B258"/>
<path d="M112.645 16.1211H105.242V14.3828C105.242 12.3776 105.47 10.8346 105.926 9.75391C106.395 8.66016 107.326 7.69661 108.719 6.86328C110.112 6.02995 111.922 5.61328 114.148 5.61328C116.818 5.61328 118.829 6.08854 120.184 7.03906C121.538 7.97656 122.352 9.13542 122.625 10.5156C122.898 11.8828 123.035 14.7083 123.035 18.9922V32H115.359V29.6953C114.878 30.6198 114.253 31.3164 113.484 31.7852C112.729 32.2409 111.824 32.4688 110.77 32.4688C109.389 32.4688 108.12 32.0846 106.961 31.3164C105.815 30.5352 105.242 28.8359 105.242 26.2188V24.0898C105.242 22.1497 105.548 20.8281 106.16 20.125C106.772 19.4219 108.289 18.6016 110.711 17.6641C113.302 16.6484 114.689 15.9648 114.871 15.6133C115.053 15.2617 115.145 14.5456 115.145 13.4648C115.145 12.1107 115.04 11.2318 114.832 10.8281C114.637 10.4115 114.305 10.2031 113.836 10.2031C113.302 10.2031 112.97 10.3789 112.84 10.7305C112.71 11.069 112.645 11.9609 112.645 13.4062V16.1211ZM115.145 19.6758C113.882 20.6003 113.146 21.375 112.938 22C112.742 22.625 112.645 23.5234 112.645 24.6953C112.645 26.0365 112.729 26.9023 112.898 27.293C113.081 27.6836 113.432 27.8789 113.953 27.8789C114.448 27.8789 114.767 27.7292 114.91 27.4297C115.066 27.1172 115.145 26.3099 115.145 25.0078V19.6758Z" fill="#F3B258"/>
<path d="M142.059 6.08203L138.367 32H128.074L124.109 6.08203H131.16L133.367 24.9883C133.536 23.6081 133.823 20.2227 134.227 14.832C134.461 11.8242 134.721 8.90755 135.008 6.08203H142.059Z" fill="#F3B258"/>
<path d="M161.121 19.5H150.906V25.1055C150.906 26.2773 150.991 27.0326 151.16 27.3711C151.329 27.7096 151.655 27.8789 152.137 27.8789C152.736 27.8789 153.133 27.6576 153.328 27.2148C153.536 26.7591 153.641 25.8867 153.641 24.5977V21.1797H161.121V23.0938C161.121 24.6953 161.017 25.9258 160.809 26.7852C160.613 27.6445 160.145 28.5625 159.402 29.5391C158.66 30.5156 157.716 31.2513 156.57 31.7461C155.438 32.2279 154.012 32.4688 152.293 32.4688C150.626 32.4688 149.155 32.2279 147.879 31.7461C146.603 31.2643 145.607 30.6068 144.891 29.7734C144.188 28.9271 143.699 28.0026 143.426 27C143.152 25.9844 143.016 24.513 143.016 22.5859V15.0273C143.016 12.7617 143.322 10.9779 143.934 9.67578C144.546 8.36068 145.548 7.35807 146.941 6.66797C148.335 5.96484 149.936 5.61328 151.746 5.61328C153.96 5.61328 155.783 6.03646 157.215 6.88281C158.66 7.71615 159.669 8.82943 160.242 10.2227C160.828 11.6029 161.121 13.5495 161.121 16.0625V19.5ZM153.211 15.2812V13.3867C153.211 12.0456 153.139 11.1797 152.996 10.7891C152.853 10.3984 152.56 10.2031 152.117 10.2031C151.57 10.2031 151.232 10.3724 151.102 10.7109C150.971 11.0365 150.906 11.9284 150.906 13.3867V15.2812H153.211Z" fill="#F3B258"/>
<path d="M171.746 6.08203L171.609 8.46484C172.182 7.51432 172.879 6.80469 173.699 6.33594C174.533 5.85417 175.49 5.61328 176.57 5.61328C177.924 5.61328 179.031 5.93229 179.891 6.57031C180.75 7.20833 181.303 8.01562 181.551 8.99219C181.798 9.95573 181.922 11.5703 181.922 13.8359V32H174.031V14.0508C174.031 12.2669 173.973 11.1797 173.855 10.7891C173.738 10.3984 173.413 10.2031 172.879 10.2031C172.319 10.2031 171.967 10.431 171.824 10.8867C171.681 11.3294 171.609 12.5273 171.609 14.4805V32H163.719V6.08203H171.746Z" fill="#F3B258"/>
</svg>
