<svg width="601" height="824" viewBox="0 0 601 824" fill="none" xmlns="http://www.w3.org/2000/svg">
<g clip-path="url(#clip0_195_237)">
<mask id="mask0_195_237" style="mask-type:luminance" maskUnits="userSpaceOnUse" x="0" y="0" width="601" height="824">
<path d="M600.5 0H0.5V824H600.5V0Z" fill="white"/>
</mask>
<g mask="url(#mask0_195_237)">
<mask id="mask1_195_237" style="mask-type:luminance" maskUnits="userSpaceOnUse" x="0" y="0" width="601" height="824">
<path d="M600.5 0H0.5V824H600.5V0Z" fill="white"/>
</mask>
<g mask="url(#mask1_195_237)">
<mask id="mask2_195_237" style="mask-type:luminance" maskUnits="userSpaceOnUse" x="0" y="0" width="601" height="824">
<path d="M600.5 0H0.5V823.495H600.5V0Z" fill="white"/>
</mask>
<g mask="url(#mask2_195_237)">
<path d="M513.744 568.664H135.125C121.85 568.664 109.985 559.765 106.285 547.019L43.7592 332.1C43.6711 331.835 43.7299 331.571 43.9061 331.336C44.0823 331.131 44.3172 330.984 44.6109 330.984H562.202C581.996 330.984 596.416 349.809 591.189 368.928L542.76 546.52C539.148 559.559 527.253 568.664 513.744 568.664ZM45.7269 332.717L107.93 546.549C111.424 558.561 122.614 566.96 135.125 566.96H513.744C526.49 566.96 537.709 558.385 541.057 546.109L589.485 368.517C594.39 350.514 580.851 332.746 562.173 332.746H45.7269V332.717Z" fill="#1E3832"/>
<path d="M243.175 568.047L174.541 332.1C174.394 331.63 174.658 331.16 175.128 331.042C175.598 330.896 176.068 331.16 176.185 331.63L244.849 567.548C244.996 568.018 244.731 568.487 244.262 568.605C243.821 568.752 243.322 568.517 243.175 568.047Z" fill="#1E3832"/>
<path d="M298.415 806.579H262.527C251.073 806.579 241.029 799.266 237.534 788.37L166.756 568.076C166.609 567.636 166.873 567.137 167.314 566.99C167.784 566.843 168.253 567.107 168.4 567.548L239.179 787.841C242.438 798.032 251.836 804.875 262.527 804.875H298.415C298.885 804.875 299.267 805.257 299.267 805.727C299.267 806.197 298.885 806.579 298.415 806.579Z" fill="#1E3832"/>
<path d="M506.285 806.579H469.28C457.827 806.579 447.783 799.266 444.288 788.37L373.51 568.076C373.363 567.636 373.627 567.137 374.068 566.99C374.537 566.843 375.007 567.107 375.154 567.548L445.932 787.841C449.192 798.032 458.59 804.875 469.28 804.875H506.285C506.755 804.875 507.137 805.257 507.137 805.727C507.166 806.197 506.755 806.579 506.285 806.579Z" fill="#1E3832"/>
<path d="M541.265 805.727C541.265 815.389 533.424 823.23 523.761 823.23C514.099 823.23 506.258 815.389 506.258 805.727C506.258 796.064 514.099 788.223 523.761 788.223C533.424 788.223 541.265 796.064 541.265 805.727Z" fill="#F4F0D5"/>
<path d="M565.406 806.579H528.402C516.948 806.579 506.904 799.266 503.409 788.37L432.631 568.076C432.484 567.636 432.748 567.137 433.189 566.99C433.659 566.843 434.128 567.107 434.275 567.548L505.054 787.841C508.313 798.032 517.711 804.875 528.402 804.875H565.406C565.876 804.875 566.258 805.257 566.258 805.727C566.287 806.197 565.905 806.579 565.406 806.579Z" fill="#1E3832"/>
<path d="M600.382 805.727C600.382 815.389 592.541 823.23 582.879 823.23C573.216 823.23 565.375 815.389 565.375 805.727C565.375 796.064 573.216 788.223 582.879 788.223C592.541 788.223 600.382 796.064 600.382 805.727Z" fill="#F4F0D5"/>
<path d="M333.421 805.727C333.421 815.389 325.58 823.23 315.918 823.23C306.255 823.23 298.414 815.389 298.414 805.727C298.414 796.064 306.255 788.223 315.918 788.223C325.58 788.223 333.421 796.064 333.421 805.727Z" fill="#F4F0D5"/>
<path d="M360.821 806.579H324.933C313.479 806.579 303.435 799.266 299.94 788.37L229.162 568.076C229.015 567.636 229.279 567.137 229.72 566.99C230.19 566.843 230.66 567.107 230.807 567.548L301.585 787.841C304.845 798.032 314.243 804.875 324.933 804.875H360.821C361.291 804.875 361.673 805.257 361.673 805.727C361.702 806.197 361.291 806.579 360.821 806.579Z" fill="#1E3832"/>
<path d="M395.859 805.727C395.859 815.389 388.017 823.23 378.355 823.23C368.693 823.23 360.852 815.389 360.852 805.727C360.852 796.064 368.693 788.223 378.355 788.223C388.017 788.223 395.859 796.064 395.859 805.727Z" fill="#F4F0D5"/>
<path d="M481.997 389.309V505.608C481.997 512.334 476.534 517.796 469.809 517.796C463.084 517.796 457.621 512.334 457.621 505.608V389.309C457.621 382.583 463.084 377.121 469.809 377.121C476.564 377.15 481.997 382.583 481.997 389.309Z" fill="#F3B258"/>
<path d="M422.731 389.309V505.608C422.731 512.334 417.269 517.796 410.543 517.796C403.818 517.796 398.355 512.334 398.355 505.608V389.309C398.355 382.583 403.818 377.121 410.543 377.121C417.298 377.15 422.731 382.583 422.731 389.309Z" fill="#1E3832"/>
<path d="M363.466 389.309V505.608C363.466 512.334 358.003 517.796 351.278 517.796C344.552 517.796 339.09 512.334 339.09 505.608V389.309C339.09 382.583 344.552 377.121 351.278 377.121C358.003 377.15 363.466 382.583 363.466 389.309Z" fill="#F3B258"/>
<path d="M304.2 389.309V505.608C304.2 512.334 298.737 517.796 292.012 517.796C285.287 517.796 279.824 512.334 279.824 505.608V389.309C279.824 382.583 285.287 377.121 292.012 377.121C298.737 377.15 304.2 382.583 304.2 389.309Z" fill="#1E3832"/>
<path d="M175.361 332.716H44.5825C44.2301 332.716 43.9364 332.51 43.7896 332.187L2.20362 236.533C-3.61137 223.171 6.16837 208.193 20.7939 208.193H112.16C120.442 208.193 127.784 213.127 130.926 220.792L176.183 331.511C176.301 331.776 176.271 332.069 176.095 332.304C175.919 332.569 175.655 332.716 175.361 332.716ZM45.1406 330.983H174.069L129.311 221.438C126.462 214.448 119.707 209.925 112.16 209.925H20.7939C7.43122 209.925 -1.52619 223.611 3.78952 235.858L45.1406 330.983Z" fill="#1E3832"/>
<path d="M292.01 294.684V331.836H194.242V294.684C194.242 292.335 196.151 290.426 198.501 290.426H287.781C290.131 290.426 292.01 292.335 292.01 294.684Z" fill="#F3B258"/>
<path d="M292.895 332.717H193.395V294.684C193.395 291.865 195.685 289.574 198.505 289.574H287.785C290.604 289.574 292.895 291.865 292.895 294.684V332.717ZM195.098 330.984H291.162V294.684C291.162 292.805 289.635 291.307 287.785 291.307H198.505C196.625 291.307 195.127 292.834 195.127 294.684V330.984H195.098Z" fill="#1E3832"/>
<path d="M509.486 291.307V331.835H308.957V291.307C308.957 285.991 313.274 281.674 318.59 281.674H499.853C505.168 281.674 509.486 285.991 509.486 291.307Z" fill="#F3B258"/>
<path d="M510.369 332.717H308.137V291.307C308.137 285.521 312.836 280.822 318.621 280.822H499.884C505.67 280.822 510.369 285.521 510.369 291.307V332.717ZM309.84 330.984H508.636V291.307C508.636 286.49 504.701 282.555 499.884 282.555H318.621C313.805 282.555 309.869 286.49 309.869 291.307V330.984H309.84Z" fill="#1E3832"/>
<path d="M422.73 267.605V331.835H270.277V267.605C270.277 263.934 273.244 260.998 276.885 260.998H416.122C419.764 260.998 422.73 263.964 422.73 267.605Z" fill="#1E3832"/>
<path d="M423.615 332.717H269.43V267.606C269.43 263.465 272.778 260.117 276.919 260.117H416.155C420.267 260.117 423.644 263.465 423.644 267.606V332.717H423.615ZM271.133 330.984H421.882V267.606C421.882 264.435 419.298 261.85 416.126 261.85H276.889C273.718 261.85 271.133 264.435 271.133 267.606V330.984Z" fill="#1E3832"/>
<path d="M97.0933 211.718C97.0933 214.537 94.8026 216.799 92.0126 216.799H24.7292C21.9098 216.799 19.6484 214.508 19.6484 211.718C19.6484 208.899 21.9392 206.637 24.7292 206.637H92.0126C94.8026 206.608 97.0933 208.899 97.0933 211.718Z" fill="#F3B258"/>
<path d="M91.9814 217.65H24.7274C21.4382 217.65 18.7656 214.978 18.7656 211.689C18.7656 208.399 21.4382 205.727 24.7274 205.727H92.0108C95.3 205.727 97.9726 208.399 97.9726 211.689C97.9726 214.978 95.2707 217.65 91.9814 217.65ZM24.7274 207.489C22.4073 207.489 20.4984 209.398 20.4984 211.718C20.4984 214.038 22.4073 215.947 24.7274 215.947H92.0108C94.3309 215.947 96.2398 214.038 96.2398 211.718C96.2398 209.398 94.3309 207.489 92.0108 207.489H24.7274Z" fill="#1E3832"/>
<path d="M388.076 19.9316L352.164 66.5973L398.828 102.511L434.743 55.8448L388.076 19.9316Z" fill="#F3B258"/>
<path d="M383.618 0L324.734 0.293708L325.028 59.1776L383.912 58.8839L383.618 0Z" fill="#1E3832"/>
</g>
</g>
</g>
</g>
<defs>
<clipPath id="clip0_195_237">
<rect width="600" height="824" fill="white" transform="translate(0.5)"/>
</clipPath>
</defs>
</svg>
