<svg width="22" height="20" viewBox="0 0 22 20" fill="none" xmlns="http://www.w3.org/2000/svg">
<path d="M1.61612 17.6161C1.12796 18.1043 1.12796 18.8957 1.61612 19.3839C2.10427 19.872 2.89573 19.872 3.38388 19.3839L1.61612 17.6161ZM20.3839 2.38388C20.872 1.89573 20.872 1.10427 20.3839 0.616117C19.8957 0.127961 19.1043 0.127961 18.6161 0.616117L20.3839 2.38388ZM3.38388 19.3839L10.8839 11.8839L9.11612 10.1161L1.61612 17.6161L3.38388 19.3839ZM12.8839 9.88388L20.3839 2.38388L18.6161 0.616117L11.1161 8.11612L12.8839 9.88388Z" fill="#F3B258"/>
<path d="M5.20286 0.25H3.27035C2.19309 0.25 1.65446 0.25 1.42926 0.533538C1.35903 0.621962 1.30967 0.725104 1.28487 0.835269C1.20534 1.18852 1.54323 1.60798 2.21903 2.44689L15.7524 19.2469C15.9291 19.4662 16.0174 19.5759 16.1338 19.645C16.1722 19.6678 16.2126 19.6871 16.2544 19.7027C16.3812 19.75 16.522 19.75 16.8037 19.75H18.729C19.806 19.75 20.3444 19.75 20.5696 19.4665C20.6399 19.3781 20.6892 19.275 20.7141 19.1648C20.7936 18.8117 20.4559 18.3922 19.7806 17.5534L6.2544 0.753378C6.07771 0.533928 5.98937 0.424202 5.87296 0.35509C5.83454 0.332283 5.79416 0.312954 5.7523 0.297334C5.62547 0.25 5.4846 0.25 5.20286 0.25Z" fill="#F3B258"/>
</svg>
