<svg width="10" height="20" viewBox="0 0 10 20" fill="none" xmlns="http://www.w3.org/2000/svg">
<g clip-path="url(#clip0_196_1492)">
<mask id="mask0_196_1492" style="mask-type:luminance" maskUnits="userSpaceOnUse" x="0" y="0" width="10" height="20">
<path d="M10 0H0V20H10V0Z" fill="white"/>
</mask>
<g mask="url(#mask0_196_1492)">
<path d="M4.8 19.75H5.2C5.94995 19.75 6.32492 19.75 6.58779 19.559C6.67268 19.4973 6.74734 19.4227 6.80902 19.3378C7 19.0749 7 18.6999 7 17.95V11.625H8.2C8.94995 11.625 9.32492 11.625 9.58779 11.434C9.67268 11.3723 9.74734 11.2977 9.80902 11.2128C10 10.9499 10 10.5749 10 9.825V9.63333C10 8.88339 10 8.50841 9.80902 8.24555C9.74734 8.16065 9.67268 8.086 9.58779 8.02432C9.32492 7.83333 8.94995 7.83333 8.2 7.83333H7V5.54167C7 5.07573 7 4.84275 7.07612 4.65898C7.17761 4.41396 7.37229 4.21928 7.61732 4.11779C7.80109 4.04167 8.03406 4.04167 8.5 4.04167C8.96594 4.04167 9.19891 4.04167 9.38268 3.96555C9.62771 3.86405 9.82239 3.66938 9.92388 3.42435C10 3.24058 10 3.00761 10 2.54167V1.80556C10 1.28739 10 1.02831 9.90631 0.827382C9.80695 0.614306 9.63569 0.443051 9.42262 0.343692C9.22169 0.25 8.96261 0.25 8.44444 0.25C6.63086 0.25 5.72407 0.25 5.02084 0.577923C4.27507 0.925678 3.67568 1.52507 3.32792 2.27084C3 2.97407 3 3.88086 3 5.69445V7.83333H1.8C1.05005 7.83333 0.67508 7.83333 0.412215 8.02432C0.32732 8.086 0.252663 8.16065 0.190983 8.24555C0 8.50841 0 8.88339 0 9.63334V9.825C0 10.5749 0 10.9499 0.190983 11.2128C0.252663 11.2977 0.32732 11.3723 0.412215 11.434C0.67508 11.625 1.05005 11.625 1.8 11.625H3V17.95C3 18.6999 3 19.0749 3.19098 19.3378C3.25266 19.4227 3.32732 19.4973 3.41221 19.559C3.67508 19.75 4.05005 19.75 4.8 19.75Z" fill="#F3B258"/>
</g>
</g>
<defs>
<clipPath id="clip0_196_1492">
<rect width="10" height="20" fill="white"/>
</clipPath>
</defs>
</svg>
