<svg width="41" height="28" viewBox="0 0 41 28" fill="none" xmlns="http://www.w3.org/2000/svg">
<g clip-path="url(#clip0_196_1513)">
<mask id="mask0_196_1513" style="mask-type:luminance" maskUnits="userSpaceOnUse" x="0" y="0" width="41" height="28">
<path d="M40.5 0H0.5V28H40.5V0Z" fill="white"/>
</mask>
<g mask="url(#mask0_196_1513)">
<path d="M1.7539 12.4174C1.7539 12.4174 4.00887 5.37942 10.0988 3.60653C16.1888 1.83363 22.8412 -0.619499 30.0131 2.40138C37.1851 5.42227 34.2981 7.41477 34.2981 7.41477C34.2981 7.41477 38.4116 9.65902 39.6971 12.5781C40.9826 15.4972 39.0811 22.171 26.8423 25.208C14.6034 28.2449 8.7598 26.7291 5.71748 23.6333C2.67517 20.5374 -0.409987 19.9643 1.7539 12.4174Z" fill="white"/>
<path d="M40.3672 13.14C39.9226 10.5262 35.5466 8.05159 35.5466 8.05159C37.0142 3.18817 30.1637 1.55454 27.3356 0.959996C24.5075 0.365459 17.5499 0.563638 10.0619 3.07034C2.57396 5.57703 0.726071 13.4292 0.726071 13.4292C-0.179124 19.3478 1.51343 23.3971 7.99977 26.1663C14.4861 28.9354 25.0807 27.6231 32.8043 24.0238C40.5279 20.4244 40.8171 15.7538 40.3672 13.14ZM3.14707 17.7035C3.14707 17.7035 7.99977 30.3173 31.4277 23.0597C31.4277 23.0864 7.99977 32.0045 3.14707 17.7035ZM31.8723 21.6242C24.5932 24.0238 16.2483 26.4448 8.38006 21.7635C0.881401 17.3018 6.4197 15.1057 7.30882 14.9397C6.39292 15.0307 -0.64511 15.5342 3.25419 9.78699C3.25419 9.78699 6.18938 4.48437 12.4775 3.2953C18.7657 2.10622 24.2665 0.295829 27.9783 1.75272C31.6902 3.2096 35.8037 4.83252 32.7989 7.73022C32.7989 7.73022 36.4733 8.75325 38.7764 11.6617C41.0796 14.5701 39.146 19.23 31.8723 21.6242Z" fill="#1E3832"/>
<path d="M34.3198 7.41572C35.7285 5.98562 34.052 4.50195 34.052 4.50195C35.0536 7.90313 28.6958 6.76762 24.5823 8.0049C20.4687 9.24218 13.961 13.2807 8.89402 12.1881C3.82707 11.0954 2.60586 14.5287 2.60586 14.5287C1.77029 17.2872 5.02685 19.6867 5.02685 19.6867C3.19504 16.3873 6.98186 14.7055 14.2556 14.3305C21.5293 13.9556 22.1024 14.1431 27.7853 11.4436C33.4682 8.74405 36.6712 9.26896 36.6712 9.26896L34.3198 7.41572ZM25.2732 9.78851C23.3932 10.458 17.9353 12.6969 14.5019 12.6326C17.4139 12.0403 20.2596 11.1594 22.9969 10.0027C25.579 8.88932 28.3696 8.34143 31.1811 8.3959C29.1873 8.74896 27.2149 9.2139 25.2732 9.78851Z" fill="#1E3832"/>
<path d="M4.07812 10.5487C4.07812 10.5487 7.06153 5.96916 9.96994 5.16573C12.8783 4.36231 16.6544 3.82669 19.0754 2.87864C21.4964 1.9306 28.1809 1.39498 30.4948 4.30339C30.4948 4.30339 28.3523 2.59477 24.5012 2.75545C20.6501 2.91614 17.8435 4.54442 16.1563 4.56584C14.4691 4.58727 11.2875 5.7442 10.5912 5.71207C9.89495 5.67993 6.92761 7.07254 4.07812 10.5487Z" fill="#1E3832"/>
<path d="M8.27344 8.10555C8.27344 8.10555 9.4518 6.24695 13.5225 6.24695C17.5932 6.24695 19.7839 4.32943 21.1872 4.31872C22.5905 4.30801 24.7384 2.82434 27.4004 4.25445C25.9854 3.88078 24.4899 3.94995 23.1154 4.45262C20.973 5.31497 20.3141 4.93468 19.2911 5.68455C18.2681 6.43441 17.1808 6.8147 14.5241 6.80935C11.8674 6.80399 10.1749 7.1093 8.27344 8.10555Z" fill="#1E3832"/>
<path d="M6.61719 18.2246C6.61719 18.2246 8.90429 22.3649 17.2063 23.2915C25.5084 24.2182 40.4093 18.5513 38.3526 12.7988C38.3526 12.7988 39.0757 16.8213 30.9182 20.0992C22.7607 23.3772 13.5213 24.652 6.61719 18.2246Z" fill="#1E3832"/>
<path d="M10.7793 19.3914C10.7793 19.3914 21.0632 26.0492 35.1714 15.9902C35.1714 15.9902 22.7825 24.4477 10.7793 19.3914Z" fill="#1E3832"/>
<path d="M29.1468 10.1836C29.1468 10.1836 31.9588 9.35339 33.3889 11.6458C33.3889 11.6458 31.6214 9.60513 26.6348 11.4584L29.1468 10.1836Z" fill="#1E3832"/>
<path d="M21.546 9.55557C21.546 9.55557 21.6585 7.73447 18.6055 7.86837C18.6055 7.86837 21.9852 8.98246 19.5053 10.4447L21.546 9.55557Z" fill="#1E3832"/>
</g>
</g>
<defs>
<clipPath id="clip0_196_1513">
<rect width="41" height="28" fill="white"/>
</clipPath>
</defs>
</svg>
