<svg width="1000" height="900" viewBox="0 0 1000 900" fill="none" xmlns="http://www.w3.org/2000/svg">
<path fill-rule="evenodd" clip-rule="evenodd" d="M1000 0H0V900H1000V0ZM892.207 875.623C903.043 883.312 913.878 891 935.549 891V890.972C967.939 890.972 989.844 867.292 989.844 838.271H990C990 818.848 981.419 809.139 972.838 799.431C964.257 789.723 955.676 780.014 955.676 760.591C955.676 741.165 964.259 731.453 972.84 721.742C981.421 712.033 990 702.325 990 682.91C990 663.493 981.419 653.785 972.838 644.076C964.257 634.368 955.676 624.66 955.676 605.243C955.676 585.826 964.257 576.118 972.838 566.409C981.419 556.701 990 546.993 990 527.576C990 508.159 981.419 498.451 972.838 488.743C964.257 479.034 955.676 469.326 955.676 449.909C955.676 430.492 964.257 420.784 972.838 411.076C981.419 401.367 990 391.659 990 372.242C990 352.826 981.419 343.117 972.838 333.409C964.257 323.7 955.676 313.992 955.676 294.575C955.676 275.159 964.257 265.45 972.838 255.742C981.419 246.034 990 236.325 990 216.908C990 197.492 981.419 187.783 972.838 178.075C964.257 168.367 955.676 158.658 955.676 139.242C955.676 119.825 964.257 110.117 972.838 100.408C981.419 90.6998 990 80.9914 990 61.5747H989.844C989.844 32.5545 963.586 9.02796 931.197 9.02796C909.527 9.02796 899.78 16.708 890.032 24.3887C880.282 32.0708 870.531 39.7536 848.85 39.7536C827.169 39.7536 816.33 32.0638 805.491 24.3747C794.655 16.687 783.819 9 762.15 9C740.479 9 729.64 16.6884 718.801 24.3768C707.961 32.0652 697.122 39.7536 675.451 39.7536C653.78 39.7536 642.944 32.0652 632.109 24.3768C621.273 16.6884 610.438 9 588.767 9C567.096 9 556.26 16.6884 545.425 24.3768C534.589 32.0652 523.754 39.7536 502.083 39.7536C480.412 39.7536 469.576 32.0652 458.741 24.3768C447.905 16.6884 437.07 9 415.399 9C393.728 9 382.892 16.6884 372.057 24.3768C361.221 32.0652 350.386 39.7536 328.715 39.7536C307.046 39.7536 296.214 32.0666 285.382 24.3789C274.547 16.6898 263.712 9 242.031 9C220.35 9 209.511 16.6898 198.672 24.3789C187.836 32.0666 177 39.7536 155.331 39.7536C133.66 39.7536 122.825 32.0652 111.989 24.3768C101.154 16.6884 90.3184 9 68.6474 9V9.02796C36.2579 9.02796 10 32.5545 10 61.5747C10 80.9984 18.581 89.896 27.1621 98.7936C35.7431 107.691 44.3241 116.589 44.3241 136.012C44.3241 155.438 35.7415 165.15 27.1597 174.861C18.5795 184.57 10 194.278 10 213.693C10 233.11 18.581 242.825 27.1621 252.541C35.7431 262.256 44.3241 271.971 44.3241 291.388C44.3241 310.805 35.7431 320.513 27.1621 330.222C18.581 339.93 10 349.638 10 369.055C10 388.472 18.581 398.18 27.1621 407.888C35.7431 417.597 44.3241 427.305 44.3241 446.722C44.3241 466.139 35.7431 475.847 27.1621 485.555C18.581 495.264 10 504.972 10 524.389C10 543.806 18.581 553.514 27.1621 563.222C35.7431 572.931 44.3241 582.639 44.3241 602.056C44.3241 621.472 35.7431 631.181 27.1621 640.889C18.581 650.598 10 660.306 10 679.723C10 699.139 18.5888 708.848 27.1777 718.556C35.7665 728.264 44.3553 737.973 44.3553 757.389C44.3553 776.806 35.7743 786.515 27.1933 796.223C18.6122 805.931 10.0312 815.64 10.0312 835.056C10.0312 864.077 36.2891 891 68.6786 891C90.3574 891 101.193 883.312 112.028 875.623C122.864 867.935 133.699 860.246 155.378 860.246C177.059 860.246 187.898 867.936 198.737 875.625C209.573 883.313 220.409 891 242.078 891C263.749 891 274.584 883.312 285.42 875.623C296.255 867.935 307.091 860.246 328.762 860.246C350.433 860.246 361.268 867.935 372.104 875.623C382.939 883.312 393.775 891 415.446 891C437.117 891 447.952 883.312 458.788 875.623C469.623 867.935 480.459 860.246 502.13 860.246C523.801 860.246 534.636 867.935 545.472 875.623C556.307 883.312 567.143 891 588.814 891C610.485 891 621.32 883.312 632.156 875.623C642.991 867.935 653.827 860.246 675.498 860.246C697.169 860.246 708.004 867.935 718.84 875.623C729.675 883.312 740.51 891 762.182 891C783.853 891 794.688 883.312 805.523 875.623C816.359 867.935 827.194 860.246 848.865 860.246C870.536 860.246 881.372 867.935 892.207 875.623Z" fill="#FFFAE6"/>
</svg>
