<svg width="23" height="22" viewBox="0 0 23 22" fill="none" xmlns="http://www.w3.org/2000/svg">
<g clip-path="url(#clip0_195_981)">
<path fill-rule="evenodd" clip-rule="evenodd" d="M11.6156 21.8455C17.5011 21.8455 22.2723 17.0744 22.2723 11.1889C22.2723 5.30337 17.5011 0.532227 11.6156 0.532227C5.73013 0.532227 0.958984 5.30337 0.958984 11.1889C0.958984 17.0744 5.73013 21.8455 11.6156 21.8455ZM15.4745 9.58254C15.7946 9.26241 15.7946 8.74338 15.4745 8.42325C15.1544 8.10312 14.6353 8.10312 14.3152 8.42325L10.5229 12.2156L8.91655 10.6092C8.59642 10.2891 8.07739 10.2891 7.75726 10.6092C7.43713 10.9294 7.43713 11.4484 7.75726 11.7685L9.94324 13.9545C10.2634 14.2746 10.7824 14.2746 11.1025 13.9545L15.4745 9.58254Z" fill="#F3B258"/>
</g>
<defs>
<clipPath id="clip0_195_981">
<rect width="22" height="22" fill="white" transform="translate(0.5)"/>
</clipPath>
</defs>
</svg>
